<svg width="20" height="20" viewBox="0 0 20 20" fill="none" xmlns="http://www.w3.org/2000/svg">
<path d="M2.30543 18.8589C2.94873 18.8589 3.47022 18.3374 3.47022 17.6941C3.47022 17.0508 2.94873 16.5293 2.30543 16.5293C1.66212 16.5293 1.14062 17.0508 1.14062 17.6941C1.14062 18.3374 1.66212 18.8589 2.30543 18.8589Z" fill="black"/>
<path d="M17.6951 3.47022C18.3384 3.47022 18.8599 2.94873 18.8599 2.30543C18.8599 1.66212 18.3384 1.14062 17.6951 1.14062C17.0518 1.14062 16.5303 1.66212 16.5303 2.30543C16.5303 2.94873 17.0518 3.47022 17.6951 3.47022Z" fill="black"/>
<path d="M13.8474 3.47022C14.4907 3.47022 15.0122 2.94873 15.0122 2.30543C15.0122 1.66212 14.4907 1.14062 13.8474 1.14062C13.2041 1.14062 12.6826 1.66212 12.6826 2.30543C12.6826 2.94873 13.2041 3.47022 13.8474 3.47022Z" fill="black"/>
<path d="M10.0007 3.47022C10.644 3.47022 11.1655 2.94873 11.1655 2.30543C11.1655 1.66212 10.644 1.14062 10.0007 1.14062C9.35744 1.14062 8.83594 1.66212 8.83594 2.30543C8.83594 2.94873 9.35744 3.47022 10.0007 3.47022Z" fill="black"/>
<path d="M6.15308 3.47022C6.79638 3.47022 7.31788 2.94873 7.31788 2.30543C7.31788 1.66212 6.79638 1.14062 6.15308 1.14062C5.50978 1.14062 4.98828 1.66212 4.98828 2.30543C4.98828 2.94873 5.50978 3.47022 6.15308 3.47022Z" fill="black"/>
<path d="M2.30543 3.47022C2.94873 3.47022 3.47022 2.94873 3.47022 2.30543C3.47022 1.66212 2.94873 1.14062 2.30543 1.14062C1.66212 1.14062 1.14062 1.66212 1.14062 2.30543C1.14062 2.94873 1.66212 3.47022 2.30543 3.47022Z" fill="black"/>
<path d="M17.6951 18.8589C18.3384 18.8589 18.8599 18.3374 18.8599 17.6941C18.8599 17.0508 18.3384 16.5293 17.6951 16.5293C17.0518 16.5293 16.5303 17.0508 16.5303 17.6941C16.5303 18.3374 17.0518 18.8589 17.6951 18.8589Z" fill="black"/>
<path d="M17.6951 15.0112C18.3384 15.0112 18.8599 14.4897 18.8599 13.8464C18.8599 13.2031 18.3384 12.6816 17.6951 12.6816C17.0518 12.6816 16.5303 13.2031 16.5303 13.8464C16.5303 14.4897 17.0518 15.0112 17.6951 15.0112Z" fill="black"/>
<path d="M17.6951 11.1655C18.3384 11.1655 18.8599 10.644 18.8599 10.0007C18.8599 9.35744 18.3384 8.83594 17.6951 8.83594C17.0518 8.83594 16.5303 9.35744 16.5303 10.0007C16.5303 10.644 17.0518 11.1655 17.6951 11.1655Z" fill="black"/>
<path d="M17.6951 7.31788C18.3384 7.31788 18.8599 6.79638 18.8599 6.15308C18.8599 5.50978 18.3384 4.98828 17.6951 4.98828C17.0518 4.98828 16.5303 5.50978 16.5303 6.15308C16.5303 6.79638 17.0518 7.31788 17.6951 7.31788Z" fill="black"/>
<path d="M13.8943 18.8589C14.5376 18.8589 15.0591 18.3374 15.0591 17.6941C15.0591 17.0508 14.5376 16.5293 13.8943 16.5293C13.251 16.5293 12.7295 17.0508 12.7295 17.6941C12.7295 18.3374 13.251 18.8589 13.8943 18.8589Z" fill="black"/>
<path d="M13.8943 15.0112C14.5376 15.0112 15.0591 14.4897 15.0591 13.8464C15.0591 13.2031 14.5376 12.6816 13.8943 12.6816C13.251 12.6816 12.7295 13.2031 12.7295 13.8464C12.7295 14.4897 13.251 15.0112 13.8943 15.0112Z" fill="black"/>
<path d="M13.8943 11.1655C14.5376 11.1655 15.0591 10.644 15.0591 10.0007C15.0591 9.35744 14.5376 8.83594 13.8943 8.83594C13.251 8.83594 12.7295 9.35744 12.7295 10.0007C12.7295 10.644 13.251 11.1655 13.8943 11.1655Z" fill="black"/>
<path d="M13.8943 7.31788C14.5376 7.31788 15.0591 6.79638 15.0591 6.15308C15.0591 5.50978 14.5376 4.98828 13.8943 4.98828C13.251 4.98828 12.7295 5.50978 12.7295 6.15308C12.7295 6.79638 13.251 7.31788 13.8943 7.31788Z" fill="black"/>
<path d="M10.0945 18.8589C10.7378 18.8589 11.2593 18.3374 11.2593 17.6941C11.2593 17.0508 10.7378 16.5293 10.0945 16.5293C9.45119 16.5293 8.92969 17.0508 8.92969 17.6941C8.92969 18.3374 9.45119 18.8589 10.0945 18.8589Z" fill="black"/>
<path d="M10.0945 15.0112C10.7378 15.0112 11.2593 14.4897 11.2593 13.8464C11.2593 13.2031 10.7378 12.6816 10.0945 12.6816C9.45119 12.6816 8.92969 13.2031 8.92969 13.8464C8.92969 14.4897 9.45119 15.0112 10.0945 15.0112Z" fill="black"/>
<path d="M10.0945 11.1655C10.7378 11.1655 11.2593 10.644 11.2593 10.0007C11.2593 9.35744 10.7378 8.83594 10.0945 8.83594C9.45119 8.83594 8.92969 9.35744 8.92969 10.0007C8.92969 10.644 9.45119 11.1655 10.0945 11.1655Z" fill="black"/>
<path d="M10.0945 7.31788C10.7378 7.31788 11.2593 6.79638 11.2593 6.15308C11.2593 5.50978 10.7378 4.98828 10.0945 4.98828C9.45119 4.98828 8.92969 5.50978 8.92969 6.15308C8.92969 6.79638 9.45119 7.31788 10.0945 7.31788Z" fill="black"/>
<path d="M6.09449 18.8589C6.73779 18.8589 7.25929 18.3374 7.25929 17.6941C7.25929 17.0508 6.73779 16.5293 6.09449 16.5293C5.45119 16.5293 4.92969 17.0508 4.92969 17.6941C4.92969 18.3374 5.45119 18.8589 6.09449 18.8589Z" fill="black"/>
<path d="M6.09449 15.0112C6.73779 15.0112 7.25929 14.4897 7.25929 13.8464C7.25929 13.2031 6.73779 12.6816 6.09449 12.6816C5.45119 12.6816 4.92969 13.2031 4.92969 13.8464C4.92969 14.4897 5.45119 15.0112 6.09449 15.0112Z" fill="black"/>
<path d="M6.09449 11.1655C6.73779 11.1655 7.25929 10.644 7.25929 10.0007C7.25929 9.35744 6.73779 8.83594 6.09449 8.83594C5.45119 8.83594 4.92969 9.35744 4.92969 10.0007C4.92969 10.644 5.45119 11.1655 6.09449 11.1655Z" fill="black"/>
<path d="M6.09449 7.31788C6.73779 7.31788 7.25929 6.79638 7.25929 6.15308C7.25929 5.50978 6.73779 4.98828 6.09449 4.98828C5.45119 4.98828 4.92969 5.50978 4.92969 6.15308C4.92969 6.79638 5.45119 7.31788 6.09449 7.31788Z" fill="black"/>
<path d="M2.29468 15.0112C2.93798 15.0112 3.45948 14.4897 3.45948 13.8464C3.45948 13.2031 2.93798 12.6816 2.29468 12.6816C1.65138 12.6816 1.12988 13.2031 1.12988 13.8464C1.12988 14.4897 1.65138 15.0112 2.29468 15.0112Z" fill="black"/>
<path d="M2.29468 11.1655C2.93798 11.1655 3.45948 10.644 3.45948 10.0007C3.45948 9.35744 2.93798 8.83594 2.29468 8.83594C1.65138 8.83594 1.12988 9.35744 1.12988 10.0007C1.12988 10.644 1.65138 11.1655 2.29468 11.1655Z" fill="black"/>
<path d="M2.29468 7.31788C2.93798 7.31788 3.45948 6.79638 3.45948 6.15308C3.45948 5.50978 2.93798 4.98828 2.29468 4.98828C1.65138 4.98828 1.12988 5.50978 1.12988 6.15308C1.12988 6.79638 1.65138 7.31788 2.29468 7.31788Z" fill="black"/>
<path d="M17.6951 3.47022C18.3384 3.47022 18.8599 2.94873 18.8599 2.30543C18.8599 1.66212 18.3384 1.14062 17.6951 1.14062C17.0518 1.14062 16.5303 1.66212 16.5303 2.30543C16.5303 2.94873 17.0518 3.47022 17.6951 3.47022Z" fill="black"/>
<path d="M13.8474 3.47022C14.4907 3.47022 15.0122 2.94873 15.0122 2.30543C15.0122 1.66212 14.4907 1.14062 13.8474 1.14062C13.2041 1.14062 12.6826 1.66212 12.6826 2.30543C12.6826 2.94873 13.2041 3.47022 13.8474 3.47022Z" fill="black"/>
<path d="M10.0007 3.47022C10.644 3.47022 11.1655 2.94873 11.1655 2.30543C11.1655 1.66212 10.644 1.14062 10.0007 1.14062C9.35744 1.14062 8.83594 1.66212 8.83594 2.30543C8.83594 2.94873 9.35744 3.47022 10.0007 3.47022Z" fill="black"/>
<path d="M6.15308 3.47022C6.79638 3.47022 7.31788 2.94873 7.31788 2.30543C7.31788 1.66212 6.79638 1.14062 6.15308 1.14062C5.50978 1.14062 4.98828 1.66212 4.98828 2.30543C4.98828 2.94873 5.50978 3.47022 6.15308 3.47022Z" fill="black"/>
<path d="M2.30543 3.47022C2.94873 3.47022 3.47022 2.94873 3.47022 2.30543C3.47022 1.66212 2.94873 1.14062 2.30543 1.14062C1.66212 1.14062 1.14062 1.66212 1.14062 2.30543C1.14062 2.94873 1.66212 3.47022 2.30543 3.47022Z" fill="black"/>
</svg>
