<?xml version="1.0" standalone="no"?>
<!DOCTYPE svg PUBLIC "-//W3C//DTD SVG 20010904//EN"
 "http://www.w3.org/TR/2001/REC-SVG-20010904/DTD/svg10.dtd">
<svg version="1.0" xmlns="http://www.w3.org/2000/svg"
 width="512.000000pt" height="512.000000pt" viewBox="0 0 512.000000 512.000000"
 preserveAspectRatio="xMidYMid meet">
<metadata>
Created by potrace 1.14, written by Peter Selinger 2001-2017
</metadata>
<g transform="translate(0.000000,512.000000) scale(0.100000,-0.100000)"
fill="#000000" stroke="none">
<path d="M3412 5027 c-13 -23 -38 -68 -55 -100 -17 -31 -97 -155 -177 -275
-169 -249 -134 -227 -310 -197 -163 28 -509 23 -670 -10 -14 -3 -41 -8 -61
-11 l-35 -6 -161 244 c-88 133 -178 276 -199 316 -21 39 -41 72 -44 72 -3 0
-19 -26 -35 -57 -21 -41 -69 -98 -163 -193 -140 -140 -208 -219 -283 -330
-198 -289 -340 -662 -389 -1022 l-12 -87 -89 -65 c-87 -65 -135 -93 -194 -117
l-30 -12 26 -7 c39 -11 71 -30 67 -41 -2 -5 -42 -38 -89 -72 -201 -145 -335
-242 -346 -252 -6 -5 -36 -28 -67 -50 -63 -45 -64 -48 -24 -135 37 -82 56
-124 163 -365 108 -242 133 -298 163 -365 11 -25 32 -72 47 -105 14 -33 36
-82 48 -109 12 -27 67 -150 122 -274 55 -123 104 -225 110 -226 5 0 30 30 54
68 43 65 46 67 60 49 64 -79 162 -214 191 -264 43 -71 237 -261 375 -364 33
-24 100 -68 149 -97 73 -44 95 -62 124 -108 44 -70 169 -194 247 -247 185
-124 412 -187 660 -182 105 2 146 7 266 33 116 25 232 75 338 147 116 77 183
147 285 294 7 12 36 32 62 45 304 150 511 329 615 530 19 36 62 107 95 158
l62 94 52 -77 c44 -65 54 -75 66 -63 7 7 79 162 160 343 80 182 154 348 164
370 10 22 64 144 120 270 114 257 122 276 191 427 27 59 49 111 48 115 0 5
-122 96 -271 203 -149 107 -273 200 -275 206 -2 6 18 18 44 26 l48 16 -30 11
c-45 17 -69 30 -98 54 -15 12 -65 49 -111 82 -82 57 -86 62 -91 105 -50 371
-180 727 -373 1020 -94 143 -164 224 -343 397 -52 50 -89 97 -119 153 -25 44
-47 80 -50 80 -3 0 -15 -19 -28 -43z"/>
</g>
</svg>
