<svg width="35" height="35" viewBox="0 0 35 35" fill="none" xmlns="http://www.w3.org/2000/svg">
<path d="M32.6762 17.0631C32.6762 25.3046 26.0357 31.9933 17.8369 31.9933C9.63821 31.9933 2.99762 25.3046 2.99762 17.0631C2.99762 8.81414 9.63821 2.13287 17.8369 2.13287C26.0357 2.13287 32.6762 8.81414 32.6762 17.0631Z" fill="#283544"/>
<path d="M24.7925 13.2851C24.7115 13.3326 22.7838 14.3356 22.7838 16.5596C22.8747 19.0958 25.2164 19.9853 25.2566 19.9853C25.2164 20.0328 24.9031 21.1969 23.9748 22.4172C23.2381 23.4684 22.4204 24.5282 21.1787 24.5282C19.9977 24.5282 19.5737 23.8276 18.2109 23.8276C16.7474 23.8276 16.3332 24.5282 15.2127 24.5282C13.9711 24.5282 13.0928 23.4116 12.316 22.3703C11.3067 21.0074 10.4489 18.8687 10.4186 16.8151C10.3982 15.7269 10.6207 14.6572 11.1856 13.7486C11.9828 12.4802 13.4062 11.6191 14.9606 11.5908C16.1515 11.5531 17.2115 12.3574 17.9383 12.3574C18.6349 12.3574 19.9371 11.5908 21.4105 11.5908C22.0465 11.5914 23.7424 11.771 24.7925 13.2851ZM17.8376 11.3735C17.6256 10.3797 18.2109 9.38595 18.756 8.75204C19.4525 7.98543 20.5527 7.46509 21.5013 7.46509C21.5619 8.45885 21.1781 9.43348 20.4921 10.1433C19.8765 10.9099 18.8166 11.4871 17.8376 11.3735Z" fill="white"/>
</svg>
