<svg width="34" height="35" viewBox="0 0 34 35" fill="none" xmlns="http://www.w3.org/2000/svg">
<path d="M31.8 17.3947C31.8 16.1671 31.699 15.2713 31.4803 14.3423H17.2635V19.8831H25.6085C25.4403 21.26 24.5318 23.3336 22.5128 24.7271L22.4845 24.9126L26.9796 28.3461L27.291 28.3768C30.1511 25.7722 31.8 21.9401 31.8 17.3947Z" fill="#4285F4"/>
<path d="M17.2626 31.9933C21.3509 31.9933 24.7831 30.6661 27.29 28.3769L22.5119 24.7271C21.2332 25.6064 19.5171 26.2202 17.2626 26.2202C13.2584 26.2202 9.85988 23.6157 8.6484 20.0159L8.47082 20.0307L3.79678 23.5974L3.73566 23.765C6.22566 28.6422 11.3403 31.9933 17.2626 31.9933Z" fill="#34A853"/>
<path d="M8.64928 20.016C8.32962 19.087 8.14462 18.0916 8.14462 17.0631C8.14462 16.0345 8.32962 15.0392 8.63246 14.1102L8.62399 13.9124L3.89136 10.2884L3.73652 10.361C2.71027 12.3849 2.1214 14.6577 2.1214 17.0631C2.1214 19.4685 2.71027 21.7411 3.73652 23.765L8.64928 20.016Z" fill="#FBBC05"/>
<path d="M17.2627 7.90585C20.106 7.90585 22.024 9.11685 23.1176 10.1289L27.3911 6.01473C24.7665 3.60931 21.351 2.13287 17.2627 2.13287C11.3404 2.13287 6.22568 5.48385 3.73566 10.361L8.63161 14.1102C9.85992 10.5104 13.2585 7.90585 17.2627 7.90585Z" fill="#EB4335"/>
</svg>
