<svg width="40" height="40" viewBox="0 0 40 40" fill="none" xmlns="http://www.w3.org/2000/svg">
<g clip-path="url(#clip0_2965_6214)">
<path d="M39.4896 31.2C33.0813 24.4367 19.3513 21.61 10.5813 25.84L19.7546 13.135L24.1379 20.0733C24.3846 20.4833 24.9213 20.6067 25.3213 20.3467L28.6429 18.125C31.4496 21.135 34.2396 24.155 36.6363 26.7217C36.6812 26.7651 36.738 26.7942 36.7995 26.8055C36.861 26.8167 36.9244 26.8094 36.9818 26.7847C37.0392 26.7599 37.0879 26.7187 37.122 26.6663C37.156 26.6138 37.1737 26.5525 37.1729 26.49C37.1726 26.4387 37.1594 26.3883 37.1346 26.3433C34.7848 22.2457 32.4253 18.1546 30.0529 14.07C29.6296 13.3467 29.1329 13.2317 28.4096 13.705L26.1763 15.24L20.5396 6.53C20.452 6.39047 20.3307 6.2753 20.1867 6.19518C20.0428 6.11506 19.881 6.07258 19.7163 6.07167C19.5547 6.07075 19.3955 6.11078 19.2536 6.18801C19.1116 6.26524 18.9916 6.37716 18.9046 6.51334C12.6612 14.8931 6.404 23.2626 0.132932 31.6217V31.625C-0.200401 32.0917 0.131266 32.7417 0.704599 32.7433C0.996266 32.74 1.25627 32.5367 1.51793 32.41C6.7546 29.7 18.5129 25.75 26.6396 31.9767C30.2079 35.005 42.6563 34.3233 39.4896 31.2017" fill="#007E10"/>
</g>
<defs>
<clipPath id="clip0_2965_6214">
<rect width="40" height="40" fill="white"/>
</clipPath>
</defs>
</svg>
